# xmcd CD database file
#
# Track frame offsets:
#	182
#	15745
#	30760
#	43257
#	63667
#	77320
#	91675
#	103080
#	114767
#	130655
#	139815
#	153565
#	167150
#	186540
#	197795
#	212210
#	228140
#	249047
#	257430
#	284650
#
# Disc length: 3953 seconds
#
# Revision: 2
# Processed by: cddbd v1.5.1PL0 Copyright (c) Steve Scherf et al.
# Submitted via: CDex 1.51
#
DISCID=080f6f14
DTITLE=Lightnin' Hopkins - Lightnin'!
DYEAR=1989
DGENRE=Blues
TTITLE0=Hold Up Your Hands
TTITLE1=My Starter Won't Start This Morning
TTITLE2=What'd I Say
TTITLE3=One Kind Favor
TTITLE4=Baby Please Don't Go
TTITLE5=Trouble In Mind
TTITLE6=Annie's Blues
TTITLE7=Baby
TTITLE8=Little and Low
TTITLE9=I Hear You Callin'\n
TTITLE10=Mojo Hand Part 1
TTITLE11=Mojo Hand Part 2\n
TTITLE12=Have You Ever Had A Woman
TTITLE13=Ain't It Crazy
TTITLE14=Black and Evil
TTITLE15=Rock Me Baby
TTITLE16=Hello Central
TTITLE17=Back Door Friend
TTITLE18=Little Girl, Little Girl
TTITLE19=It's Better Down The Road
EXTD=YEAR: 1989
EXTT0=
EXTT1=
EXTT2=
EXTT3=
EXTT4=
EXTT5=
EXTT6=
EXTT7=
EXTT8=
EXTT9=
EXTT10=
EXTT11=
EXTT12=
EXTT13=
EXTT14=
EXTT15=
EXTT16=
EXTT17=
EXTT18=
EXTT19=
PLAYORDER=
